<svg xmlns="http://www.w3.org/2000/svg" width="27" height="27">
    <path fill="#2E2E2E" fill-rule="evenodd" d="M25.958 4.833h-2.709v21.126c0 .299-.243.542-.541.542H4.29c-.3 0-.542-.243-.542-.542V4.833H1.039c-.299 0-.542-.242-.542-.541 0-.299.243-.542.542-.542h7.042V1.041c0-.299.243-.541.543-.541h9.75c.299 0 .542.242.542.541V3.75h7.042c.299 0 .541.243.541.542 0 .299-.242.541-.541.541zm-8.126-3.25H9.165V3.75h8.667V1.583zm4.333 3.25H4.831v20.585h17.334V4.833zM8.624 8.083c.298 0 .541.243.541.542v12.459c0 .299-.243.542-.541.542-.3 0-.543-.243-.543-.542V8.625c0-.299.243-.542.543-.542zm4.875 0c.299 0 .541.243.541.542v12.459c0 .299-.242.542-.541.542-.3 0-.542-.243-.542-.542V8.625c0-.299.242-.542.542-.542zm4.875-.541c.299 0 .542.242.542.541v12.459c0 .299-.243.542-.542.542-.299 0-.542-.243-.542-.542V8.083c0-.299.243-.541.542-.541z"/>
</svg>
