<svg xmlns="http://www.w3.org/2000/svg" width="24" height="24">
    <path fill="#C00" fill-rule="evenodd" d="M12 24C5.373 24 0 18.627 0 12S5.373 0 12 0s12 5.373 12 12-5.373 12-12 12zm5.633-17.143h-2.694v-.735c0-.405-.329-.734-.735-.734H9.796c-.406 0-.735.329-.735.734v.735H6.367c-.405 0-.734.329-.734.735 0 .406.329.735.734.735h.735v9.061c0 .405.329.734.735.734h8.326c.406 0 .735-.329.735-.734V8.327h.735c.405 0 .734-.329.734-.735 0-.406-.329-.735-.734-.735zm-9.062 1.47H15.429v8.326H8.571V8.327zm4.898 6.612c0 .405.329.734.735.734.406 0 .735-.329.735-.734V9.306c0-.406-.329-.735-.735-.735-.406 0-.735.329-.735.735v5.633zm-2.204.245c0 .405.329.734.735.734.406 0 .735-.329.735-.734V9.551c0-.406-.329-.735-.735-.735-.406 0-.735.329-.735.735v5.633zm-2.204 0c0 .405.329.734.735.734.406 0 .735-.329.735-.734V9.551c0-.406-.329-.735-.735-.735-.406 0-.735.329-.735.735v5.633z"/>
</svg>
