<svg xmlns="http://www.w3.org/2000/svg" width="26" height="26">
    <path fill="#000000" fill-rule="evenodd"
     d="M19.362 26c-3.667 0-6.639-2.972-6.639-6.638s2.972-6.639 6.639-6.639c3.665 0 6.638 2.973 6.638 6.639C26 23.028
      23.027 26 19.362 26zm2.903-6.524c-.27-.27-.708-.27-.978 0l-1.234 1.234v-4.368c0-.382-.309-.691-.691-.691-.382
       0-.692.309-.692.691v4.368l-1.233-1.234c-.271-.27-.708-.27-.978 0s-.27.708 0 .978l2.903 2.903 2.903-2.903c.27-.27.27-.708
        0-.978zm-11.201-.114H2.766c-.306 0-.553-.248-.553-.553 0-.306.247-.554.553-.554h8.298c.305 0 .553.248.553.554
         0 .305-.248.553-.553.553zm0-3.319H2.766c-.306 0-.553-.248-.553-.554 0-.305.247-.553.553-.553h8.298c.305 0 .553.248.553.553 
         0 .306-.248.554-.553.554zm0-3.32H2.766c-.306 0-.553-.247-.553-.553 0-.306.247-.553.553-.553h8.298c.305 0 .553.247.553.553
          0 .306-.248.553-.553.553zM2.766 6.085c-.306 0-.553-.247-.553-.553 0-.306.247-.553.553-.553h4.979c.305 0 .553.247.553.553
           0 .306-.248.553-.553.553H2.766zm8.851 2.766c0 .306-.248.553-.553.553H2.766c-.306 0-.553-.247-.553-.553 0-.306.247-.553.553-.553h8.298c.305 0 .553.247.553.553zm6.085-2.213h-4.979c-.305 0-.553-.247-.553-.553V1.106H1.106v22.128h10.511v1.106H.553c-.305 0-.553-.247-.553-.553V.553C0 .247.248 0 .553 0h12.17c.074 0 .146.015.213.043.068.028.128.069.179.119l5.526 5.528c.053.052.096.114.125.184.013.031.013.066.02.099.008.037.023.072.023.112l-.001.001.001.001v4.424h-1.107V6.638zm-4.425-4.749v3.643h3.641l-3.641-3.643z"
            style="color: black ;background: black;"
           />
</svg>
