<svg xmlns="http://www.w3.org/2000/svg" width="24" height="24">
    <path fill="#F93" fill-rule="evenodd" d="M11.75 0C5.271 0 0 5.271 0 11.75S5.271 23.5 11.75 23.5 23.5 18.229 23.5 11.75 18.229 0 11.75 0zm2.844 11.967c.507 0 .918.411.918.918 0 .507-.411.918-.918.918h-4.218V8.447c0-.507.411-.918.918-.918.507 0 .918.411.918.918v3.52h2.382zm3.205 5.17c-1.439 1.542-3.392 2.432-5.5 2.505l-.032.001c-.492 0-.9-.39-.917-.886-.018-.507.379-.932.886-.95 1.617-.056 3.116-.739 4.22-1.922 1.104-1.184 1.68-2.727 1.623-4.344-.116-3.338-2.925-5.948-6.266-5.845-1.683.059-3.295.85-4.422 2.169-.587.687-1.004 1.479-1.243 2.329l.783-.892c.335-.381.915-.418 1.296-.084.381.335.419.915.084 1.296l-2.534 2.884c-.009.013-.021.023-.031.036l-.011.012-.007.007c-.039.043-.081.082-.128.117l-.026.019c-.041.029-.084.054-.131.076l-.043.02c-.04.016-.082.03-.124.041l-.069.015c-.016.003-.03.009-.046.011-.023.003-.046 0-.068.001-.016.001-.032.005-.048.005-.02 0-.041 0-.062-.002h-.001c-.067-.005-.133-.017-.197-.036-.02-.006-.039-.016-.058-.023-.04-.015-.078-.03-.115-.05-.029-.016-.055-.034-.082-.053-.024-.016-.047-.033-.07-.052-.029-.024-.056-.05-.082-.078-.016-.017-.03-.035-.045-.053-.017-.022-.037-.04-.053-.063l-2.197-3.309c-.28-.422-.165-.992.257-1.273.423-.28.993-.165 1.273.257l.675 1.017c.288-1.233.864-2.381 1.707-3.368 1.461-1.709 3.558-2.734 5.754-2.81 4.356-.149 8.014 3.264 8.165 7.615.075 2.107-.677 4.117-2.115 5.66z"/>
</svg>
