<svg xmlns="http://www.w3.org/2000/svg" width="25" height="25">
    <path fill="#1483F3" fill-rule="evenodd" d="M12.297.405C5.516.405 0 5.922 0 12.702 0 19.483 5.516 25 12.297 25c7.473 0 12.297-5.517 12.297-12.298 0-6.78-4.824-12.297-12.297-12.297zM11.16 17.314c0 .283-.374.512-.657.512H8.454c-.283 0-.513-.229-.513-.512V8.91c0-1.102.23-1.331.513-1.331h2.049c.283 0 .657.229.657 1.331v8.404zm5.492 0c0 .283-.23.512-.513.512H14.9c-1.093 0-1.322-.229-1.322-.512V8.91c0-1.102.229-1.331 1.322-1.331h1.239c.283 0 .513.229.513 1.331v8.404z"/>
</svg>
