<svg xmlns="http://www.w3.org/2000/svg" width="25" height="25">
    <path fill="#C00" fill-rule="evenodd" d="M12.108.938C5.474.938.077 6.335.077 12.969S5.474 25 12.108 25s12.031-5.397 12.031-12.031S18.742.938 12.108.938zm.837 12.404l-5.013 4.511c-.094.085-.214.129-.336.129-.069 0-.138-.014-.203-.044-.181-.08-.298-.26-.298-.457V8.458c0-.198.117-.378.298-.458.18-.081.391-.048.539.085l5.013 4.512c.105.095.166.23.166.372s-.061.278-.166.373zm4.176 4.139c0 .277-.225.501-.501.501h-2.005c-.277 0-.502-.224-.502-.501V8.458c0-.278.225-.502.502-.502h2.005c.276 0 .501.224.501.502v9.023z"/>
</svg>
