<svg xmlns="http://www.w3.org/2000/svg" width="27" height="21">
    <path fill="#1483F3" fill-rule="evenodd" d="M26.514 14.14c-.116.079-.248.116-.379.116-.221 0-.438-.108-.57-.307l-1.684-2.547c-.4 4.176-3.554 8.017-7.818 9.026-.766.182-1.538.271-2.303.271-2.597 0-5.108-1.026-7.011-2.929-.268-.268-.27-.706-.005-.977.266-.272.699-.274.968-.006 2.126 2.126 5.132 2.983 8.039 2.295 3.901-.923 6.738-4.571 6.812-8.4L20.1 13.649c-.243.294-.674.331-.964.086-.29-.245-.327-.681-.085-.974l3.518-4.238c.139-.167.349-.256.562-.247.215.012.412.126.531.307l.01.013.014.023 3.017 4.562c.21.318.126.747-.189.959zm-6.259-9.296c-2.107-2.414-5.34-3.456-8.439-2.724-2.357.559-4.44 2.11-5.713 4.257-.984 1.66-1.388 3.532-1.2 5.388l2.564-3.091c.243-.292.675-.331.964-.086.29.245.328.682.085.974L5 13.801c-.131.157-.323.247-.525.247l-.037-.001c-.215-.012-.412-.125-.531-.306L.864 9.142c-.21-.317-.125-.746.189-.959.314-.212.739-.127.949.191l1.487 2.248c.046-1.72.528-3.418 1.44-4.956C6.392 3.2 8.788 1.417 11.504.774c3.589-.852 7.336.358 9.777 3.155.25.286.223.723-.06.976-.283.252-.716.225-.966-.061z"/>
</svg>
