<svg xmlns="http://www.w3.org/2000/svg" width="26" height="26">
    <path fill="#000000" fill-rule="evenodd" d="M19.362 26c-3.667 0-6.639-2.972-6.639-6.638s2.972-6.639 6.639-6.639c3.665 0 6.638 2.973 6.638 6.639C26 23.028 23.027 26 19.362 26zm2.903-6.524c-.27-.27-.708-.27-.978 0l-1.234 1.234v-4.368c0-.382-.309-.691-.691-.691-.382 0-.692.309-.692.691v4.368l-1.233-1.234c-.271-.27-.708-.27-.978 0s-.27.708 0 .978l2.903 2.903 2.903-2.903c.27-.27.27-.708 0-.978zm-4.01-8.412c-.305 0-.553-.248-.553-.553V4.426h-3.319v1.106h1.66c.305 0 .553.247.553.553v4.426c0 .305-.248.553-.553.553-.306 0-.554-.248-.554-.553V6.638h-1.106v.553c0 .306-.248.554-.553.554H4.979c-.306 0-.553-.248-.553-.554v-.553H3.319v14.383h7.192c.305 0 .553.248.553.553 0 .306-.248.554-.553.554H2.766c-.306 0-.553-.248-.553-.554V6.085c0-.306.247-.553.553-.553h1.66V4.426h-3.32v17.148c0 .916.745 1.66 1.66 1.66h8.298c.305 0 .553.247.553.553 0 .306-.248.553-.553.553H2.766C1.241 24.34 0 23.1 0 21.574V3.872c0-.305.248-.553.553-.553h3.873v-.553c0-.306.247-.553.553-.553h1.709C6.897 1.065 7.766 0 9.404 0c1.638 0 2.508 1.065 2.716 2.213h1.71c.305 0 .553.247.553.553v.553h3.872c.306 0 .554.248.554.553v6.639c0 .305-.248.553-.554.553zm-4.978-7.745h-1.66c-.305 0-.553-.247-.553-.553 0-.17-.047-1.66-1.66-1.66s-1.659 1.49-1.659 1.66c0 .306-.248.553-.554.553H5.532v3.319h7.745V3.319zM6.085 16.596h3.319c.306 0 .553.247.553.553 0 .306-.247.553-.553.553H6.085c-.305 0-.553-.247-.553-.553 0-.306.248-.553.553-.553zm5.532-5.532H6.085c-.305 0-.553-.248-.553-.553 0-.306.248-.554.553-.554h5.532c.305 0 .553.248.553.554 0 .305-.248.553-.553.553zm0 2.213H6.085c-.305 0-.553-.248-.553-.554 0-.305.248-.553.553-.553h5.532c.305 0 .553.248.553.553 0 .306-.248.554-.553.554zm-5.532 2.212c-.305 0-.553-.247-.553-.553 0-.306.248-.553.553-.553h5.532c.305 0 .553.247.553.553 0 .306-.248.553-.553.553H6.085z"/>
</svg>
