<svg height="512pt" viewBox="-64 0 512 512" width="512pt" xmlns="http://www.w3.org/2000/svg"><g fill-rule="evenodd"><path d="M384.43 113.684c-.004-.114-.008-.227-.02-.34a10.272 10.272 0 00-.152-1.254c-.004-.012-.004-.02-.004-.028a10.375 10.375 0 00-.457-1.55 10.597 10.597 0 00-.492-1.121c-.012-.024-.02-.047-.032-.07a9.76 9.76 0 00-.691-1.098 5.96 5.96 0 00-.2-.27 9.977 9.977 0 00-.866-1.004L277.496 2.93a9.223 9.223 0 00-1.008-.867c-.086-.07-.176-.132-.265-.199a9.971 9.971 0 00-1.098-.691c-.023-.012-.047-.02-.07-.031a8.894 8.894 0 00-1.118-.493c-.105-.039-.21-.078-.316-.113a10.375 10.375 0 00-1.238-.344c-.012 0-.02 0-.031-.004-.41-.078-.829-.125-1.247-.152-.117-.008-.23-.015-.347-.02-.11-.003-.219-.015-.332-.015H10C4.477 0 0 4.477 0 10v381.996c0 5.524 4.477 10 10 10s10-4.476 10-10V20h240.426v94.02c0 5.523 4.476 10 10 10h94.02v20c0 5.523 4.476 10 10 10 5.523 0 10-4.477 10-10v-30c0-.114-.012-.223-.016-.336zm-104.004-9.664V34.14l69.879 69.88zm0 0M374.445 214.02c-5.523 0-10 4.476-10 10V492H20v-20.004c0-5.52-4.477-10-10-10s-10 4.48-10 10V502c0 5.523 4.477 10 10 10h364.445c5.524 0 10-4.477 10-10V224.02c0-5.524-4.476-10-10-10zm0 0"/><path d="M71.395 387.344l43.488 43.484a10 10 0 0014.14 0l63.2-63.195 63.199 63.195c3.902 3.906 10.234 3.906 14.14 0l43.489-43.484c3.902-3.906 3.902-10.239 0-14.145l-63.2-63.195 63.2-63.2a10 10 0 000-14.144l-43.488-43.484c-3.903-3.903-10.235-3.906-14.141 0l-63.2 63.199-63.199-63.2c-3.906-3.902-10.234-3.905-14.14 0L71.395 232.66c-3.903 3.906-3.903 10.238 0 14.145l63.199 63.199-63.2 63.195c-3.902 3.906-3.902 10.238 0 14.145zm84.414-70.27a10 10 0 000-14.14l-63.2-63.2 29.344-29.343 63.2 63.199c3.906 3.902 10.238 3.902 14.144 0l63.195-63.2 29.348 29.344-63.2 63.2c-3.906 3.906-3.906 10.238 0 14.14l63.2 63.2-29.348 29.343-63.195-63.195a9.97 9.97 0 00-7.074-2.93 9.968 9.968 0 00-7.07 2.93l-63.2 63.2-29.344-29.349zm0 0M10 441.996c5.508 0 10-4.488 10-10 0-5.508-4.492-10-10-10s-10 4.492-10 10c0 5.512 4.492 10 10 10zm0 0M374.445 174.02c-5.507 0-10 4.492-10 10 0 5.507 4.493 10 10 10 5.508 0 10-4.493 10-10 0-5.508-4.492-10-10-10zm0 0"/></g></svg>